<?xml version="1.0" encoding="utf-8"?>
<!-- Generator: Adobe Illustrator 17.0.0, SVG Export Plug-In . SVG Version: 6.00 Build 0)  -->
<!DOCTYPE svg PUBLIC "-//W3C//DTD SVG 1.1//EN" "http://www.w3.org/Graphics/SVG/1.1/DTD/svg11.dtd">
<svg version="1.1" id="Capa_1" xmlns="http://www.w3.org/2000/svg" xmlns:xlink="http://www.w3.org/1999/xlink" x="0px" y="0px"
	 width="512px" height="512px" viewBox="0 0 512 512" enable-background="new 0 0 512 512" xml:space="preserve">
<path fill="#5C1217" d="M298.668,138.668c0,58.91-47.758,106.664-106.668,106.664S85.332,197.578,85.332,138.668
	C85.332,79.758,133.09,32,192,32S298.668,79.758,298.668,138.668z"/>
<path fill="#5C1217" d="M282.668,288H101.332C45.461,288,0,333.461,0,389.332V464c0,8.832,7.168,16,16,16h352
	c8.832,0,16-7.168,16-16v-74.668C384,333.461,338.539,288,282.668,288L282.668,288z"/>
<path fill="#5C1217" d="M506.902,212.266l-74.668-69.332c-3.007-2.797-6.933-4.246-10.879-4.246
	c-10.582,0-16.023,9.003-16.023,15.98v48H320c-11.797,0-21.332,9.555-21.332,21.332s9.535,21.332,21.332,21.332h85.332v48
	c0,8.875,7.211,16,16,16c3.969,0,7.875-1.469,10.902-4.266l74.668-69.332C510.145,232.703,512,228.438,512,224
	S510.145,215.297,506.902,212.266L506.902,212.266z"/>
</svg>
